# xmcd
#
# Track frame offsets: 
#        150
#        14089
#        41779
#        55230
#        74595
#        88384
#        102350
#        128527
#        143124
#        154339
#        172401
#        187537
#
# Disc length: 2566 seconds
#
# Revision: 0
# Processed by: cddbd v1.5PL3 Copyright (c) Steve Scherf et al.
# Submitted via: ExactAudioCopy v0.95a5
#
DISCID=b00a040c
DTITLE=T. Elvis Pope - Alter Ego
DYEAR=2003
DGENRE=Country
TTITLE0=Ballad of a Band
TTITLE1=House on the COrner
TTITLE2=Golden Hair and Axure Eyes
TTITLE3=In a Flag 2003
TTITLE4=Whatever Happend To
TTITLE5=Step Song
TTITLE6=In The Spirit
TTITLE7=Alma Mater
TTITLE8=Every Day
TTITLE9=Home Again
TTITLE10=More Than Just Love
TTITLE11=Spirit Reprise
EXTD=
EXTT0=
EXTT1=
EXTT2=
EXTT3=
EXTT4=
EXTT5=
EXTT6=
EXTT7=
EXTT8=
EXTT9=
EXTT10=
EXTT11=
PLAYORDER=
